<?xml version="1.0" encoding="UTF-8" standalone="no"?>
<!DOCTYPE svg PUBLIC "-//W3C//DTD SVG 1.1//EN" "http://www.w3.org/Graphics/SVG/1.1/DTD/svg11.dtd">
<svg xmlns="http://www.w3.org/2000/svg" version="1.1" viewBox="0.00 0.00 531.00 469.00">
<path fill="#35362e" d="
  M 312.19 133.78
  Q 312.78 131.82 311.17 133.09
  C 309.99 134.03 309.36 136.13 308.74 137.49
  Q 308.05 139.00 306.85 140.13
  Q 303.64 143.19 301.09 147.03
  C 299.82 148.94 297.66 149.88 295.66 148.26
  A 0.89 0.88 46.9 0 1 295.70 146.85
  C 297.62 145.49 299.45 144.69 301.12 142.89
  Q 305.28 138.41 307.80 134.75
  C 310.21 131.25 313.87 123.67 312.87 119.11
  Q 312.72 118.45 312.04 118.44
  Q 310.47 118.44 309.22 117.71
  C 302.74 113.95 298.18 107.81 299.44 99.95
  Q 299.88 97.24 301.87 95.16
  C 303.84 93.09 307.38 92.67 309.62 94.73
  C 314.47 99.17 319.10 105.48 317.74 112.07
  Q 317.33 114.07 318.84 115.43
  C 322.90 119.09 328.41 120.85 332.21 124.50
  C 335.48 127.64 333.11 133.95 331.90 137.64
  Q 331.02 140.32 330.78 143.73
  C 330.44 148.52 329.42 153.49 332.87 157.39
  A 1.45 1.45 0.0 0 1 332.28 159.72
  C 329.95 160.56 326.00 161.69 323.99 160.26
  A 0.95 0.95 0.0 0 1 324.34 158.55
  L 327.77 157.80
  A 1.49 1.49 0.0 0 0 328.81 155.74
  C 327.78 153.43 326.48 151.54 326.52 148.87
  Q 326.56 146.21 326.66 143.21
  Q 326.74 140.99 325.38 142.76
  Q 320.31 149.36 318.52 156.94
  A 2.25 2.23 80.7 0 1 317.52 158.34
  Q 313.03 161.12 308.95 160.96
  Q 305.71 160.83 308.57 159.30
  Q 311.17 157.91 314.05 156.92
  A 2.02 2.01 -1.5 0 0 315.34 155.57
  Q 318.37 145.31 327.18 136.82
  Q 328.83 135.24 329.55 133.01
  C 330.44 130.26 329.87 125.46 326.72 123.97
  Q 322.07 121.76 318.15 118.47
  A 0.45 0.44 -65.9 0 0 317.42 118.75
  Q 315.90 130.44 311.95 142.02
  Q 311.13 144.42 309.13 146.08
  Q 306.55 148.23 308.01 145.21
  C 309.07 143.01 310.42 141.06 310.93 138.63
  Q 311.47 136.14 312.19 133.78
  Z
  M 312.3525 114.4780
  A 9.51 4.55 66.3 0 0 312.6963 103.9411
  A 9.51 4.55 66.3 0 0 304.7075 97.0620
  A 9.51 4.55 66.3 0 0 304.3637 107.5989
  A 9.51 4.55 66.3 0 0 312.3525 114.4780
  Z"
/>
<rect fill="#122156" x="-18.29" y="-86.96" transform="translate(202.67,218.25) rotate(-0.3)" width="36.58" height="173.92" rx="1.70"/>
<path fill="#35362e" d="
  M 269.23 171.34
  Q 268.80 172.80 270.03 171.91
  Q 273.01 169.75 275.76 167.83
  Q 279.83 164.99 283.35 159.04
  A 0.44 0.43 -50.2 0 1 284.05 158.97
  L 284.23 159.17
  A 1.26 1.25 36.6 0 1 284.44 160.54
  C 281.76 166.38 277.02 170.31 271.42 173.59
  A 1.49 1.48 -9.0 0 0 270.71 174.56
  Q 270.67 174.75 270.74 174.94
  Q 270.89 175.40 271.37 175.32
  Q 276.39 174.37 279.49 171.43
  Q 283.39 167.72 287.18 163.26
  A 0.51 0.50 -49.2 0 1 287.91 163.20
  L 288.15 163.41
  Q 288.76 163.96 288.27 164.62
  C 283.46 171.11 276.31 178.71 267.66 176.90
  Q 266.89 176.74 266.35 177.32
  Q 263.99 179.85 260.03 181.15
  Q 255.62 182.59 256.83 185.91
  C 257.20 186.95 259.46 189.16 260.45 189.74
  Q 264.65 192.20 267.92 195.69
  Q 268.38 196.18 269.05 196.28
  L 275.16 197.17
  Q 275.69 197.25 275.75 197.78
  Q 275.92 199.26 275.08 200.27
  A 0.97 0.97 0.0 0 1 273.87 200.51
  Q 271.26 199.09 268.63 199.26
  Q 267.95 199.30 267.50 198.79
  Q 264.76 195.69 261.21 193.51
  A 0.56 0.56 0.0 0 0 260.44 193.71
  Q 260.19 194.13 260.53 194.47
  Q 261.95 195.91 262.87 197.74
  Q 263.85 199.71 261.78 199.00
  L 261.22 198.81
  Q 260.71 198.64 260.33 199.01
  L 257.81 201.48
  Q 257.27 202.01 256.90 201.34
  Q 256.53 200.68 257.03 199.97
  Q 258.03 198.53 258.86 197.28
  A 1.13 1.11 53.1 0 0 258.99 196.31
  Q 257.66 192.29 255.14 188.86
  C 252.37 185.10 253.97 180.99 258.19 179.67
  Q 262.48 178.33 264.44 173.78
  Q 264.96 172.58 263.80 171.98
  C 258.57 169.25 255.15 166.07 254.28 159.82
  C 253.99 157.74 255.27 155.93 256.45 154.37
  C 258.20 152.08 261.97 153.13 263.85 154.47
  Q 269.66 158.62 271.44 165.93
  C 272.07 168.52 269.84 169.30 269.23 171.34
  Z
  M 266.9837 169.1995
  A 7.87 3.94 57.8 0 0 266.1240 160.4405
  A 7.87 3.94 57.8 0 0 258.5963 155.8805
  A 7.87 3.94 57.8 0 0 259.4560 164.6395
  A 7.87 3.94 57.8 0 0 266.9837 169.1995
  Z"
/>
<rect fill="#35362e" x="-17.71" y="-70.45" transform="translate(322.24,234.30) rotate(-0.1)" width="35.42" height="140.90" rx="0.77"/>
<path fill="#35362e" d="
  M 397.7629 304.1951
  A 1.05 1.05 0.0 0 1 396.7092 305.2414
  L 361.3294 305.1179
  A 1.05 1.05 0.0 0 1 360.2831 304.0642
  L 360.6771 191.1849
  A 1.05 1.05 0.0 0 1 361.7308 190.1386
  L 397.1106 190.2621
  A 1.05 1.05 0.0 0 1 398.1569 191.3158
  L 397.7629 304.1951
  Z
  M 395.5301 193.3065
  A 0.63 0.63 0.0 0 0 394.9023 192.6743
  L 364.0025 192.5664
  A 0.63 0.63 0.0 0 0 363.3703 193.1942
  L 362.9899 302.1735
  A 0.63 0.63 0.0 0 0 363.6177 302.8057
  L 394.5175 302.9136
  A 0.63 0.63 0.0 0 0 395.1497 302.2858
  L 395.5301 193.3065
  Z"
/>
<path fill="#69866a" d="
  M 161.59 193.20
  L 161.92 302.51
  A 1.20 1.20 0.0 0 1 160.73 303.71
  L 129.66 303.98
  A 1.20 1.20 0.0 0 1 128.45 302.79
  L 127.46 192.90
  A 1.20 1.20 0.0 0 1 128.67 191.69
  L 160.41 192.01
  A 1.20 1.20 0.0 0 1 161.59 193.20
  Z"
/>
<rect fill="#973720" x="-17.67" y="-51.02" transform="translate(264.06,253.80) rotate(-0.3)" width="35.34" height="102.04" rx="1.28"/>
<rect fill="#13140d" x="-3.51" y="-1.33" transform="translate(338.19,329.40) rotate(-27.1)" width="7.02" height="2.66" rx="0.62"/>
<path fill="#13140d" d="
  M 285.76 328.84
  A 0.52 0.52 0.0 0 1 285.52 329.53
  L 283.70 330.42
  A 4.45 0.71 -26.0 0 1 279.39 331.73
  L 278.78 330.49
  A 4.45 0.71 -26.0 0 1 282.47 327.91
  L 284.29 327.02
  A 0.52 0.52 0.0 0 1 284.99 327.25
  L 285.76 328.84
  Z"
/>
<rect fill="#13140d" x="-3.63" y="-1.39" transform="translate(160.43,330.53) rotate(-25.5)" width="7.26" height="2.78" rx="0.93"/>
<path fill="#13140d" d="
  M 393.7103 346.7432
  A 8.13 8.13 0.0 0 1 385.6946 354.9859
  L 383.8348 355.0119
  A 8.13 8.13 0.0 0 1 375.5921 346.9962
  L 375.5097 341.0968
  A 8.13 8.13 0.0 0 1 383.5254 332.8541
  L 385.3852 332.8281
  A 8.13 8.13 0.0 0 1 393.6279 340.8438
  L 393.7103 346.7432
  Z
  M 389.6009 340.3331
  A 4.68 4.68 0.0 0 0 384.8319 335.7438
  L 384.0321 335.7592
  A 4.68 4.68 0.0 0 0 379.4428 340.5282
  L 379.5791 347.6269
  A 4.68 4.68 0.0 0 0 384.3481 352.2162
  L 385.1479 352.2008
  A 4.68 4.68 0.0 0 0 389.7372 347.4318
  L 389.6009 340.3331
  Z"
/>
<path fill="#13140d" d="
  M 461.62 341.17
  L 467.77 333.95
  Q 468.69 332.88 470.09 332.87
  L 471.10 332.87
  Q 472.84 332.87 471.66 334.15
  Q 464.58 341.90 465.26 342.76
  Q 469.56 348.23 473.45 353.81
  Q 473.76 354.25 473.22 354.25
  L 470.37 354.23
  Q 469.63 354.23 469.19 353.63
  L 462.96 345.28
  Q 462.68 344.91 462.30 345.18
  C 459.96 346.82 460.69 351.29 460.65 353.82
  A 0.65 0.64 -87.5 0 1 459.96 354.46
  L 457.96 354.33
  A 0.63 0.62 2.0 0 1 457.37 353.71
  L 457.22 333.50
  A 0.54 0.54 0.0 0 1 457.75 332.96
  L 459.81 332.91
  Q 460.48 332.89 460.48 333.56
  L 460.43 340.73
  Q 460.42 342.58 461.62 341.17
  Z"
/>
<path fill="#13140d" d="
  M 479.96 349.06
  L 478.70 353.71
  A 0.76 0.76 0.0 0 1 477.96 354.27
  L 475.83 354.23
  A 0.76 0.76 0.0 0 1 475.12 353.25
  L 481.12 333.32
  A 0.76 0.76 0.0 0 1 481.84 332.78
  L 485.56 332.75
  A 0.76 0.76 0.0 0 1 486.28 333.27
  L 492.85 353.12
  A 0.76 0.76 0.0 0 1 492.10 354.12
  L 489.75 354.03
  A 0.76 0.76 0.0 0 1 489.05 353.49
  L 487.71 349.07
  A 0.76 0.76 0.0 0 0 486.99 348.53
  L 480.70 348.49
  A 0.76 0.76 0.0 0 0 479.96 349.06
  Z
  M 481.27 344.45
  A 0.80 0.80 0.0 0 0 482.05 345.45
  L 485.88 345.42
  A 0.80 0.80 0.0 0 0 486.65 344.41
  L 484.68 337.12
  A 0.80 0.80 0.0 0 0 483.13 337.13
  L 481.27 344.45
  Z"
/>
<path fill="#13140d" d="
  M 336.83 351.43
  Q 336.87 344.57 336.64 337.57
  Q 336.58 335.89 334.97 336.23
  Q 333.89 336.45 333.87 335.35
  Q 333.86 334.81 333.85 334.25
  Q 333.84 333.13 334.96 333.15
  L 342.06 333.29
  Q 342.76 333.30 342.86 333.99
  Q 343.03 335.03 342.67 335.93
  A 0.62 0.61 22.1 0 1 341.86 336.27
  Q 340.87 335.86 340.17 336.55
  Q 339.85 336.86 339.87 337.36
  Q 340.05 344.24 340.15 351.01
  A 1.10 1.10 0.0 0 0 341.19 352.10
  L 342.16 352.16
  Q 342.88 352.21 342.96 352.92
  L 343.10 354.15
  Q 343.19 354.86 342.47 354.87
  L 334.78 354.99
  A 0.66 0.66 0.0 0 1 334.11 354.37
  L 334.01 352.90
  Q 333.96 352.26 334.60 352.23
  L 336.13 352.16
  Q 336.82 352.13 336.83 351.43
  Z"
/>
<path fill="#13140d" d="
  M 425.79 336.51
  L 425.78 350.83
  Q 425.78 351.42 426.33 351.64
  Q 427.07 351.93 427.98 351.73
  Q 428.37 351.64 428.38 352.04
  L 428.44 353.69
  A 0.89 0.88 -1.6 0 1 427.56 354.61
  L 420.17 354.68
  Q 419.40 354.69 419.36 353.92
  L 419.27 352.49
  Q 419.23 351.70 420.01 351.81
  L 420.56 351.89
  A 1.45 1.44 3.6 0 0 422.21 350.44
  L 421.95 336.66
  Q 421.94 336.03 421.33 335.88
  Q 420.70 335.74 420.00 335.89
  Q 419.26 336.05 419.09 335.31
  Q 418.90 334.52 419.07 333.66
  Q 419.17 333.14 419.71 333.13
  L 427.38 333.05
  A 0.74 0.74 0.0 0 1 428.13 333.77
  L 428.16 335.08
  Q 428.18 335.84 427.42 335.82
  L 426.50 335.81
  Q 425.79 335.80 425.79 336.51
  Z"
/>
<path fill="#13140d" d="
  M 436.99 338.64
  Q 436.86 338.91 436.88 339.23
  Q 437.34 346.45 437.35 353.85
  Q 437.35 354.63 436.57 354.63
  L 434.91 354.62
  Q 434.07 354.61 434.06 353.77
  L 433.84 333.74
  Q 433.83 333.07 434.51 333.06
  L 437.40 333.03
  Q 438.39 333.02 438.87 333.89
  L 446.36 347.55
  A 0.34 0.34 0.0 0 0 446.86 347.66
  Q 447.19 347.43 447.20 347.00
  Q 447.29 340.17 447.12 333.57
  Q 447.10 332.87 447.80 332.91
  L 449.81 333.02
  Q 450.56 333.06 450.57 333.81
  L 450.76 353.73
  Q 450.77 354.48 450.02 354.49
  L 446.95 354.51
  A 1.07 1.06 -14.0 0 1 446.01 353.95
  L 437.87 338.61
  A 0.50 0.49 -46.6 0 0 436.99 338.64
  Z"
/>
<path fill="#13140d" d="
  M 325.35 333.37
  L 327.64 333.31
  A 0.47 0.47 0.0 0 1 328.13 333.78
  L 328.40 354.45
  A 0.47 0.47 0.0 0 1 327.93 354.93
  L 324.13 354.90
  A 0.47 0.47 0.0 0 1 323.72 354.65
  L 315.82 339.31
  A 0.47 0.47 0.0 0 0 314.93 339.53
  L 315.07 354.54
  A 0.47 0.47 0.0 0 1 314.61 355.02
  L 312.26 355.11
  A 0.47 0.47 0.0 0 1 311.78 354.64
  L 311.62 333.90
  A 0.47 0.47 0.0 0 1 312.10 333.42
  L 316.01 333.45
  A 0.47 0.47 0.0 0 1 316.42 333.70
  L 324.17 348.19
  A 0.47 0.47 0.0 0 0 325.06 347.97
  L 324.90 333.84
  A 0.47 0.47 0.0 0 1 325.35 333.37
  Z"
/>
<path fill="#13140d" d="
  M 360.40 346.75
  L 360.54 354.27
  Q 360.55 354.85 359.98 354.83
  L 357.18 354.75
  Q 356.63 354.73 356.62 354.18
  L 356.34 333.96
  Q 356.33 333.29 357.00 333.26
  C 360.83 333.09 369.55 332.11 370.74 337.48
  Q 371.83 342.42 368.35 344.84
  A 1.34 1.33 -31.1 0 0 367.92 346.55
  L 371.82 354.20
  Q 372.09 354.73 371.49 354.74
  L 369.13 354.75
  Q 368.39 354.76 368.06 354.11
  L 364.16 346.66
  Q 363.95 346.25 363.52 346.09
  Q 362.29 345.65 361.02 345.96
  Q 360.39 346.11 360.40 346.75
  Z
  M 360.18 336.93
  L 360.26 342.39
  A 0.85 0.85 0.0 0 0 361.12 343.23
  L 364.06 343.19
  A 3.53 3.06 -0.8 0 0 367.55 340.08
  L 367.53 339.04
  A 3.53 3.06 -0.8 0 0 363.96 336.03
  L 361.02 336.07
  A 0.85 0.85 0.0 0 0 360.18 336.93
  Z"
/>
<path fill="#13140d" d="
  M 398.78 333.41
  A 0.23 0.23 0.0 0 1 399.01 333.18
  L 406.17 333.12
  A 8.57 8.29 -0.5 0 1 414.81 341.33
  L 414.85 346.25
  A 8.57 8.29 -0.5 0 1 406.35 354.61
  L 399.19 354.68
  A 0.23 0.23 0.0 0 1 398.96 354.45
  L 398.78 333.41
  Z
  M 402.30 336.07
  L 402.60 351.61
  A 0.33 0.33 0.0 0 0 402.94 351.94
  L 404.93 351.90
  A 6.32 5.81 -1.1 0 0 411.13 345.97
  L 411.05 341.39
  A 6.32 5.81 -1.1 0 0 404.61 335.70
  L 402.63 335.74
  A 0.33 0.33 0.0 0 0 402.30 336.07
  Z"
/>
<path fill="#13140d" d="
  M 222.4077 348.2732
  A 7.81 7.81 0.0 0 1 214.6387 356.1240
  L 212.4188 356.1357
  A 7.81 7.81 0.0 0 1 204.5680 348.3667
  L 204.5323 341.5468
  A 7.81 7.81 0.0 0 1 212.3013 333.6960
  L 214.5212 333.6843
  A 7.81 7.81 0.0 0 1 222.3720 341.4533
  L 222.4077 348.2732
  Z
  M 218.8032 341.1778
  A 4.43 4.43 0.0 0 0 214.3887 336.7324
  L 213.0687 336.7277
  A 4.43 4.43 0.0 0 0 208.6233 341.1423
  L 208.5968 348.7222
  A 4.43 4.43 0.0 0 0 213.0113 353.1676
  L 214.3313 353.1723
  A 4.43 4.43 0.0 0 0 218.7767 348.7577
  L 218.8032 341.1778
  Z"
/>
<path fill="#13140d" d="
  M 251.83 341.23
  Q 251.69 341.49 251.69 341.70
  Q 251.79 348.55 251.80 355.04
  Q 251.80 355.61 251.24 355.61
  L 249.48 355.63
  Q 248.89 355.63 248.89 355.04
  L 248.83 334.49
  A 0.60 0.59 -1.0 0 1 249.42 333.89
  L 252.82 333.87
  Q 253.28 333.86 253.46 334.30
  Q 256.12 340.83 257.98 347.17
  Q 258.61 349.30 259.38 347.22
  L 264.13 334.38
  Q 264.31 333.90 264.83 333.87
  L 268.52 333.67
  Q 269.14 333.64 269.14 334.26
  L 269.17 354.53
  Q 269.17 355.48 268.22 355.49
  L 266.46 355.49
  A 1.04 1.03 89.4 0 1 265.42 354.46
  L 265.32 344.23
  Q 265.27 338.40 263.61 343.99
  Q 262.51 347.74 260.85 351.61
  Q 260.56 352.28 259.83 352.28
  L 257.17 352.27
  Q 256.49 352.27 256.28 351.63
  L 252.81 341.32
  Q 252.42 340.15 251.83 341.23
  Z"
/>
<path fill="#13140d" d="
  M 278.58 350.08
  L 277.26 354.87
  A 0.59 0.59 0.0 0 1 276.71 355.31
  L 273.97 355.41
  A 0.59 0.59 0.0 0 1 273.38 354.65
  L 279.67 334.07
  A 0.59 0.59 0.0 0 1 280.21 333.65
  L 284.22 333.48
  A 0.59 0.59 0.0 0 1 284.80 333.88
  L 291.69 354.51
  A 0.59 0.59 0.0 0 1 291.10 355.29
  L 288.13 355.14
  A 0.59 0.59 0.0 0 1 287.60 354.73
  L 286.08 349.95
  A 0.59 0.59 0.0 0 0 285.51 349.54
  L 279.14 349.64
  A 0.59 0.59 0.0 0 0 278.58 350.08
  Z
  M 279.81 345.44
  A 0.80 0.80 0.0 0 0 280.58 346.39
  L 284.00 346.47
  A 0.80 0.80 0.0 0 0 284.79 345.45
  L 282.75 338.22
  A 0.80 0.80 0.0 0 0 281.19 338.28
  L 279.81 345.44
  Z"
/>
<path fill="#13140d" d="
  M 308.73 352.65
  L 308.73 354.53
  A 0.61 0.61 0.0 0 1 308.12 355.14
  L 296.43 355.20
  A 0.61 0.61 0.0 0 1 295.82 354.59
  L 295.68 334.15
  A 0.61 0.61 0.0 0 1 296.27 333.54
  L 298.89 333.44
  A 0.61 0.61 0.0 0 1 299.52 334.04
  L 299.74 351.49
  A 0.61 0.61 0.0 0 0 300.36 352.10
  L 308.12 352.04
  A 0.61 0.61 0.0 0 1 308.73 352.65
  Z"
/>
<path fill="#13140d" d="
  M 195.32 348.24
  L 195.32 334.74
  Q 195.32 334.30 195.76 334.26
  L 198.11 334.05
  A 0.65 0.65 0.0 0 1 198.82 334.70
  L 198.84 355.31
  A 0.65 0.65 0.0 0 1 198.19 355.96
  L 194.75 355.96
  Q 194.24 355.96 194.02 355.49
  L 186.98 340.39
  A 0.58 0.58 0.0 0 0 186.26 340.08
  Q 185.87 340.21 185.87 340.57
  Q 186.03 348.32 185.88 355.73
  Q 185.88 356.10 185.50 356.09
  L 182.90 356.03
  Q 182.53 356.02 182.53 355.65
  L 182.48 335.05
  Q 182.48 334.34 183.20 334.33
  L 186.57 334.29
  Q 187.21 334.28 187.51 334.85
  C 188.70 337.10 190.08 339.02 191.01 341.44
  Q 192.51 345.32 194.37 348.50
  Q 195.32 350.12 195.32 348.24
  Z"
/>
<path fill="#13140d" d="
  M 239.29 346.72
  L 243.63 354.63
  Q 244.20 355.68 243.01 355.67
  L 241.03 355.66
  Q 239.86 355.65 239.32 354.62
  L 235.54 347.39
  Q 235.25 346.84 234.63 346.83
  L 232.80 346.81
  Q 231.63 346.79 231.65 347.95
  L 231.73 355.21
  Q 231.74 355.65 231.29 355.67
  L 228.53 355.74
  A 0.47 0.47 0.0 0 1 228.04 355.27
  L 227.86 334.66
  Q 227.85 334.01 228.50 334.00
  Q 230.26 333.98 231.91 334.01
  C 235.15 334.07 237.76 333.58 240.73 335.43
  Q 242.73 336.67 242.96 339.12
  Q 243.45 344.34 239.66 345.73
  Q 238.90 346.01 239.29 346.72
  Z
  M 231.68 337.49
  L 231.74 343.39
  A 0.68 0.68 0.0 0 0 232.42 344.07
  L 235.62 344.04
  A 3.60 3.20 -0.5 0 0 239.19 340.81
  L 239.19 339.95
  A 3.60 3.20 -0.5 0 0 235.56 336.78
  L 232.36 336.81
  A 0.68 0.68 0.0 0 0 231.68 337.49
  Z"
/>
<path fill="#13140d" d="
  M 163.64 350.56
  L 157.10 350.78
  A 0.60 0.60 0.0 0 0 156.55 351.21
  L 155.09 356.04
  A 0.60 0.60 0.0 0 1 154.56 356.47
  L 151.79 356.67
  A 0.60 0.60 0.0 0 1 151.17 355.89
  L 157.70 334.94
  A 0.60 0.60 0.0 0 1 158.26 334.52
  L 162.48 334.40
  A 0.60 0.60 0.0 0 1 163.07 334.82
  L 169.85 355.61
  A 0.60 0.60 0.0 0 1 169.25 356.39
  L 166.35 356.26
  A 0.60 0.60 0.0 0 1 165.80 355.84
  L 164.23 350.97
  A 0.60 0.60 0.0 0 0 163.64 350.56
  Z
  M 157.53 346.74
  A 0.47 0.47 0.0 0 0 157.96 347.36
  L 162.73 347.50
  A 0.47 0.47 0.0 0 0 163.20 346.91
  L 161.06 338.57
  A 0.47 0.47 0.0 0 0 160.16 338.55
  L 157.53 346.74
  Z"
/>
<path fill="#13140d" d="
  M 128.2516 348.8614
  A 8.22 8.22 0.0 0 1 120.1182 357.1670
  L 117.7583 357.1917
  A 8.22 8.22 0.0 0 1 109.4527 349.0583
  L 109.3884 342.9186
  A 8.22 8.22 0.0 0 1 117.5218 334.6130
  L 119.8817 334.5883
  A 8.22 8.22 0.0 0 1 128.1873 342.7217
  L 128.2516 348.8614
  Z
  M 124.1466 341.9492
  A 4.66 4.66 0.0 0 0 119.4948 337.2810
  L 118.3348 337.2790
  A 4.66 4.66 0.0 0 0 113.6667 341.9309
  L 113.6534 349.5508
  A 4.66 4.66 0.0 0 0 118.3052 354.2190
  L 119.4652 354.2210
  A 4.66 4.66 0.0 0 0 124.1333 349.5691
  L 124.1466 341.9492
  Z"
/>
<path fill="#13140d" d="
  M 139.74 351.50
  Q 140.40 353.49 140.97 351.48
  L 145.35 336.12
  Q 145.63 335.16 146.62 335.03
  L 148.72 334.75
  Q 149.85 334.60 149.51 335.69
  L 143.31 355.95
  A 1.04 1.02 -81.1 0 1 142.33 356.68
  L 138.41 356.64
  Q 137.65 356.63 137.40 355.91
  Q 133.90 345.85 131.28 335.34
  Q 131.16 334.87 131.65 334.87
  L 134.06 334.89
  Q 134.42 334.89 134.58 335.23
  C 136.97 340.34 138.08 346.46 139.74 351.50
  Z"
/>
<path fill="#13140d" d="
  M 94.76 343.73
  Q 97.94 339.45 101.77 335.54
  A 1.68 1.63 -65.2 0 1 103.06 335.04
  L 104.76 335.13
  Q 105.66 335.19 105.11 335.90
  L 98.74 344.26
  A 0.82 0.81 -44.0 0 0 98.72 345.21
  L 106.62 356.50
  Q 107.01 357.05 106.33 357.04
  L 103.51 356.98
  Q 102.89 356.96 102.52 356.48
  L 96.24 348.18
  Q 95.72 347.49 95.14 348.14
  C 94.20 349.21 93.27 350.24 93.46 351.82
  Q 93.72 354.01 93.65 356.26
  Q 93.62 357.04 92.85 357.09
  L 90.83 357.25
  Q 89.85 357.32 89.84 356.33
  L 89.73 335.51
  A 0.27 0.27 0.0 0 1 89.99 335.24
  L 93.24 335.16
  Q 93.57 335.15 93.57 335.49
  L 93.46 343.29
  Q 93.42 345.54 94.76 343.73
  Z"
/>
<path fill="#13140d" d="
  M 53.89 337.95
  L 48.54 337.92
  A 0.56 0.56 0.0 0 1 47.98 337.30
  L 48.15 335.89
  A 0.56 0.56 0.0 0 1 48.71 335.40
  L 64.28 335.35
  A 0.56 0.56 0.0 0 1 64.83 335.83
  L 65.05 337.21
  A 0.56 0.56 0.0 0 1 64.49 337.86
  L 59.16 337.82
  A 0.56 0.56 0.0 0 0 58.60 338.39
  L 58.77 357.05
  A 0.56 0.56 0.0 0 1 58.19 357.62
  L 55.12 357.49
  A 0.56 0.56 0.0 0 1 54.59 356.94
  L 54.44 338.50
  A 0.56 0.56 0.0 0 0 53.89 337.95
  Z"
/>
<path fill="#13140d" d="
  M 71.83 352.09
  L 70.41 357.05
  A 0.61 0.61 0.0 0 1 69.82 357.50
  L 67.00 357.48
  A 0.61 0.61 0.0 0 1 66.42 356.69
  L 72.86 335.77
  A 0.61 0.61 0.0 0 1 73.43 335.34
  L 77.85 335.19
  A 0.61 0.61 0.0 0 1 78.44 335.61
  L 85.47 356.49
  A 0.61 0.61 0.0 0 1 84.88 357.29
  L 81.89 357.22
  A 0.61 0.61 0.0 0 1 81.32 356.79
  L 79.81 351.86
  A 0.61 0.61 0.0 0 0 79.20 351.43
  L 72.40 351.65
  A 0.61 0.61 0.0 0 0 71.83 352.09
  Z
  M 72.95 347.65
  A 0.52 0.52 0.0 0 0 73.45 348.28
  L 77.86 348.34
  A 0.52 0.52 0.0 0 0 78.37 347.68
  L 75.83 338.91
  A 0.52 0.52 0.0 0 0 74.83 338.94
  L 72.95 347.65
  Z"
/>
<path fill="#13140d" d="
  M 263.27 385.69
  L 262.58 388.28
  Q 262.44 388.78 261.93 388.74
  L 261.64 388.71
  Q 261.15 388.67 261.30 388.20
  L 264.09 379.47
  Q 265.48 375.15 267.05 379.41
  Q 268.52 383.37 269.90 388.18
  Q 270.25 389.39 269.25 388.63
  Q 268.28 387.88 268.29 386.37
  Q 268.29 385.27 267.20 385.23
  L 264.05 385.11
  Q 263.43 385.09 263.27 385.69
  Z
  M 264.03 383.67
  A 0.46 0.46 0.0 0 0 264.48 384.27
  L 266.86 384.23
  A 0.46 0.46 0.0 0 0 267.29 383.62
  L 266.04 379.84
  A 0.46 0.46 0.0 0 0 265.16 379.85
  L 264.03 383.67
  Z"
/>
<path fill="#13140d" d="
  M 279.30 385.26
  L 279.34 377.55
  Q 279.34 377.46 279.43 377.46
  L 279.81 377.44
  A 0.63 0.63 0.0 0 1 280.47 378.07
  L 280.43 388.23
  A 0.52 0.52 0.0 0 1 279.82 388.74
  Q 278.83 388.55 278.37 387.62
  Q 276.64 384.16 274.79 380.97
  Q 273.74 379.14 273.73 381.26
  L 273.73 388.26
  A 0.47 0.47 0.0 0 1 273.30 388.73
  L 273.02 388.76
  Q 272.52 388.81 272.52 388.31
  L 272.51 379.71
  Q 272.50 374.74 274.94 379.06
  L 278.55 385.45
  Q 279.29 386.76 279.30 385.26
  Z"
/>
<path fill="#13140d" d="
  M 283.71 377.78
  A 0.55 0.55 0.0 0 1 284.26 377.22
  L 286.81 377.21
  A 4.64 4.58 -0.4 0 1 291.48 381.75
  L 291.50 384.11
  A 4.64 4.58 -0.4 0 1 286.89 388.73
  L 284.34 388.74
  A 0.55 0.55 0.0 0 1 283.79 388.20
  L 283.71 377.78
  Z
  M 285.00 379.17
  L 285.00 386.95
  A 0.70 0.70 0.0 0 0 285.70 387.65
  L 286.92 387.65
  A 3.30 3.21 0.0 0 0 290.22 384.44
  L 290.22 381.68
  A 3.30 3.21 0.0 0 0 286.92 378.47
  L 285.70 378.47
  A 0.70 0.70 0.0 0 0 285.00 379.17
  Z"
/>
<path fill="#13140d" d="
  M 258.38 383.55
  Q 260.03 385.25 258.88 387.65
  A 1.42 1.41 -85.4 0 1 258.02 388.39
  Q 255.90 389.04 252.88 388.90
  Q 252.26 388.87 252.26 388.25
  L 252.20 378.43
  Q 252.20 377.67 252.95 377.60
  Q 255.61 377.36 257.88 378.22
  Q 258.50 378.46 258.72 379.08
  Q 259.42 381.07 258.31 382.79
  Q 258.05 383.20 258.38 383.55
  Z
  M 253.66 379.30
  L 253.68 382.12
  A 0.54 0.54 0.0 0 0 254.22 382.66
  L 255.82 382.65
  A 2.06 1.83 -0.4 0 0 257.87 380.81
  L 257.87 380.57
  A 2.06 1.83 -0.4 0 0 255.80 378.75
  L 254.20 378.76
  A 0.54 0.54 0.0 0 0 253.66 379.30
  Z
  M 253.62 384.34
  L 253.71 387.40
  A 0.58 0.58 0.0 0 0 254.30 387.96
  L 255.55 387.92
  A 2.69 1.86 -1.7 0 0 258.19 385.98
  L 258.17 385.48
  A 2.69 1.86 -1.7 0 0 255.43 383.70
  L 254.18 383.74
  A 0.58 0.58 0.0 0 0 253.62 384.34
  Z"
/>
</svg>
